<svg xmlns="http://www.w3.org/2000/svg" fill="none" viewBox="0 0 22 18"><path fill="#fff" d="M18.951 5.156c.82-.615 1.559-1.353 2.133-2.215-.738.329-1.6.575-2.461.657a4.2 4.2 0 0 0 1.887-2.38 9.1 9.1 0 0 1-2.707 1.067A4.3 4.3 0 0 0 14.645.932a4.306 4.306 0 0 0-4.307 4.306q0 .493.123.985a12.5 12.5 0 0 1-8.9-4.512c-.37.615-.575 1.353-.575 2.174 0 1.476.739 2.789 1.928 3.568-.697-.04-1.394-.205-1.969-.533v.04a4.31 4.31 0 0 0 3.446 4.225c-.328.083-.739.165-1.108.165-.287 0-.533-.041-.82-.082.533 1.722 2.133 2.953 4.02 2.994a8.66 8.66 0 0 1-5.333 1.845c-.369 0-.697-.04-1.025-.082 1.887 1.23 4.143 1.928 6.604 1.928 7.916 0 12.222-6.521 12.222-12.223z"/></svg>